<?xml version="1.0" encoding="UTF-8"?>
<svg xmlns="http://www.w3.org/2000/svg" xmlns:xlink="http://www.w3.org/1999/xlink" width="107.39" height="45.41" viewBox="0 0 107.39 45.41">
<path fill-rule="nonzero" fill="#111111" fill-opacity="1" d="M 107.386719 -0.00390625 L 0 -0.00390625 L 0 45.410156 L 107.386719 45.410156 Z M 105.316406 2.066406 L 105.316406 43.339844 L 2.070312 43.339844 L 2.070312 2.066406 L 105.316406 2.066406 "/>
<path fill-rule="nonzero" fill="#111111" fill-opacity="1" d="M 16.324219 18.261719 L 14.171875 18.261719 L 14.171875 20.855469 L 16.324219 20.855469 C 17.257812 20.855469 17.703125 20.261719 17.703125 19.550781 C 17.703125 18.839844 17.257812 18.261719 16.324219 18.261719 Z M 16.1875 13.976562 L 14.171875 13.976562 L 14.171875 16.40625 L 16.1875 16.40625 C 17.0625 16.40625 17.554688 15.917969 17.554688 15.191406 C 17.554688 14.464844 17.0625 13.976562 16.1875 13.976562 Z M 16.53125 22.695312 L 12.109375 22.695312 L 12.109375 12.136719 L 16.351562 12.136719 C 18.414062 12.136719 19.613281 13.292969 19.613281 15.101562 C 19.613281 16.273438 18.84375 17.03125 18.308594 17.28125 C 18.949219 17.578125 19.765625 18.246094 19.765625 19.65625 C 19.765625 21.628906 18.414062 22.695312 16.53125 22.695312 "/>
<path fill-rule="nonzero" fill="#111111" fill-opacity="1" d="M 26.507812 13.976562 L 24.566406 13.976562 L 24.566406 16.761719 L 26.507812 16.761719 C 27.414062 16.761719 28.007812 16.183594 28.007812 15.371094 C 28.007812 14.554688 27.414062 13.976562 26.507812 13.976562 Z M 28.109375 22.695312 L 26.050781 18.484375 L 24.566406 18.484375 L 24.566406 22.695312 L 22.503906 22.695312 L 22.503906 12.136719 L 26.644531 12.136719 C 28.792969 12.136719 30.070312 13.605469 30.070312 15.371094 C 30.070312 16.851562 29.164062 17.773438 28.140625 18.144531 L 30.5 22.695312 L 28.109375 22.695312 "/>
<path fill-rule="nonzero" fill="#111111" fill-opacity="1" d="M 37.746094 14.449219 C 37.453125 14.109375 36.992188 13.886719 36.429688 13.886719 C 35.863281 13.886719 35.390625 14.109375 35.09375 14.449219 C 34.691406 14.894531 34.589844 15.382812 34.589844 17.414062 C 34.589844 19.449219 34.691406 19.9375 35.09375 20.382812 C 35.390625 20.722656 35.863281 20.945312 36.429688 20.945312 C 36.992188 20.945312 37.453125 20.722656 37.746094 20.382812 C 38.148438 19.9375 38.265625 19.449219 38.265625 17.414062 C 38.265625 15.382812 38.148438 14.894531 37.746094 14.449219 Z M 39.277344 21.628906 C 38.535156 22.371094 37.628906 22.785156 36.429688 22.785156 C 35.226562 22.785156 34.308594 22.371094 33.566406 21.628906 C 32.496094 20.558594 32.527344 19.242188 32.527344 17.414062 C 32.527344 15.589844 32.496094 14.273438 33.566406 13.203125 C 34.308594 12.460938 35.226562 12.046875 36.429688 12.046875 C 37.628906 12.046875 38.535156 12.460938 39.277344 13.203125 C 40.34375 14.273438 40.328125 15.589844 40.328125 17.414062 C 40.328125 19.242188 40.34375 20.558594 39.277344 21.628906 "/>
<path fill-rule="nonzero" fill="#111111" fill-opacity="1" d="M 46.859375 22.785156 C 44.695312 22.785156 42.972656 21.316406 42.972656 19.078125 L 42.972656 12.136719 L 45.035156 12.136719 L 45.035156 19.003906 C 45.035156 20.21875 45.746094 20.945312 46.859375 20.945312 C 47.972656 20.945312 48.699219 20.21875 48.699219 19.003906 L 48.699219 12.136719 L 50.746094 12.136719 L 50.746094 19.078125 C 50.746094 21.316406 49.023438 22.785156 46.859375 22.785156 "/>
<path fill-rule="nonzero" fill="#111111" fill-opacity="1" d="M 63.054688 22.695312 L 61.332031 22.695312 L 59.390625 16.289062 L 57.449219 22.695312 L 55.726562 22.695312 L 52.910156 12.136719 L 55.058594 12.136719 L 56.691406 18.796875 L 58.617188 12.136719 L 60.160156 12.136719 L 62.089844 18.796875 L 63.734375 12.136719 L 65.886719 12.136719 L 63.054688 22.695312 "/>
<path fill-rule="nonzero" fill="#111111" fill-opacity="1" d="M 68.148438 22.695312 L 68.148438 12.136719 L 75.105469 12.136719 L 75.105469 13.976562 L 70.210938 13.976562 L 70.210938 16.453125 L 74.378906 16.453125 L 74.378906 18.292969 L 70.210938 18.292969 L 70.210938 20.855469 L 75.105469 20.855469 L 75.105469 22.695312 L 68.148438 22.695312 "/>
<path fill-rule="nonzero" fill="#111111" fill-opacity="1" d="M 81.796875 13.976562 L 79.855469 13.976562 L 79.855469 16.761719 L 81.796875 16.761719 C 82.703125 16.761719 83.296875 16.183594 83.296875 15.371094 C 83.296875 14.554688 82.703125 13.976562 81.796875 13.976562 Z M 83.398438 22.695312 L 81.339844 18.484375 L 79.855469 18.484375 L 79.855469 22.695312 L 77.792969 22.695312 L 77.792969 12.136719 L 81.929688 12.136719 C 84.082031 12.136719 85.355469 13.605469 85.355469 15.371094 C 85.355469 16.851562 84.453125 17.773438 83.429688 18.144531 L 85.785156 22.695312 L 83.398438 22.695312 "/>
<path fill-rule="nonzero" fill="#111111" fill-opacity="1" d="M 91.339844 22.785156 C 89.734375 22.785156 88.519531 22.445312 87.480469 21.390625 L 88.816406 20.054688 C 89.484375 20.722656 90.390625 20.945312 91.367188 20.945312 C 92.585938 20.945312 93.238281 20.484375 93.238281 19.640625 C 93.238281 19.269531 93.132812 18.957031 92.910156 18.75 C 92.703125 18.558594 92.464844 18.453125 91.976562 18.378906 L 90.699219 18.203125 C 89.796875 18.070312 89.128906 17.785156 88.652344 17.328125 C 88.148438 16.824219 87.898438 16.140625 87.898438 15.25 C 87.898438 13.367188 89.292969 12.046875 91.574219 12.046875 C 93.027344 12.046875 94.082031 12.402344 94.988281 13.277344 L 93.679688 14.566406 C 93.015625 13.929688 92.214844 13.839844 91.515625 13.839844 C 90.417969 13.839844 89.886719 14.449219 89.886719 15.175781 C 89.886719 15.445312 89.972656 15.726562 90.195312 15.933594 C 90.402344 16.125 90.746094 16.289062 91.175781 16.347656 L 92.421875 16.527344 C 93.386719 16.660156 93.992188 16.925781 94.4375 17.34375 C 95 17.875 95.253906 18.648438 95.253906 19.582031 C 95.253906 21.628906 93.546875 22.785156 91.339844 22.785156 "/>
<path fill-rule="nonzero" fill="#111111" fill-opacity="1" d="M 14.09375 31.230469 L 13.078125 31.230469 L 13.078125 32.457031 L 14.09375 32.457031 C 14.535156 32.457031 14.742188 32.175781 14.742188 31.839844 C 14.742188 31.503906 14.535156 31.230469 14.09375 31.230469 Z M 14.03125 29.207031 L 13.078125 29.207031 L 13.078125 30.355469 L 14.03125 30.355469 C 14.441406 30.355469 14.671875 30.125 14.671875 29.78125 C 14.671875 29.4375 14.441406 29.207031 14.03125 29.207031 Z M 14.191406 33.324219 L 12.101562 33.324219 L 12.101562 28.339844 L 14.105469 28.339844 C 15.082031 28.339844 15.648438 28.886719 15.648438 29.738281 C 15.648438 30.292969 15.28125 30.652344 15.03125 30.769531 C 15.332031 30.910156 15.71875 31.226562 15.71875 31.890625 C 15.71875 32.820312 15.082031 33.324219 14.191406 33.324219 "/>
<path fill-rule="nonzero" fill="#111111" fill-opacity="1" d="M 19.425781 33.367188 C 18.402344 33.367188 17.589844 32.675781 17.589844 31.617188 L 17.589844 28.339844 L 18.566406 28.339844 L 18.566406 31.582031 C 18.566406 32.15625 18.902344 32.5 19.425781 32.5 C 19.953125 32.5 20.292969 32.15625 20.292969 31.582031 L 20.292969 28.339844 L 21.261719 28.339844 L 21.261719 31.617188 C 21.261719 32.675781 20.449219 33.367188 19.425781 33.367188 "/>
<path fill-rule="nonzero" fill="#111111" fill-opacity="1" d="M 25.222656 29.207031 L 24.304688 29.207031 L 24.304688 30.523438 L 25.222656 30.523438 C 25.648438 30.523438 25.929688 30.25 25.929688 29.867188 C 25.929688 29.480469 25.648438 29.207031 25.222656 29.207031 Z M 25.976562 33.324219 L 25.003906 31.335938 L 24.304688 31.335938 L 24.304688 33.324219 L 23.332031 33.324219 L 23.332031 28.339844 L 25.285156 28.339844 C 26.300781 28.339844 26.902344 29.03125 26.902344 29.867188 C 26.902344 30.566406 26.476562 31 25.992188 31.175781 L 27.105469 33.324219 L 25.976562 33.324219 "/>
<path fill-rule="nonzero" fill="#111111" fill-opacity="1" d="M 28.90625 33.324219 L 28.90625 28.339844 L 32.191406 28.339844 L 32.191406 29.207031 L 29.878906 29.207031 L 29.878906 30.378906 L 31.847656 30.378906 L 31.847656 31.246094 L 29.878906 31.246094 L 29.878906 32.457031 L 32.191406 32.457031 L 32.191406 33.324219 L 28.90625 33.324219 "/>
<path fill-rule="nonzero" fill="#111111" fill-opacity="1" d="M 35.992188 29.808594 L 35.363281 31.625 L 36.601562 31.625 Z M 37.15625 33.324219 L 36.859375 32.445312 L 35.089844 32.445312 L 34.789062 33.324219 L 33.773438 33.324219 L 35.585938 28.339844 L 36.347656 28.339844 L 38.171875 33.324219 L 37.15625 33.324219 "/>
<path fill-rule="nonzero" fill="#111111" fill-opacity="1" d="M 41.457031 33.367188 C 40.433594 33.367188 39.621094 32.675781 39.621094 31.617188 L 39.621094 28.339844 L 40.59375 28.339844 L 40.59375 31.582031 C 40.59375 32.15625 40.929688 32.5 41.457031 32.5 C 41.980469 32.5 42.324219 32.15625 42.324219 31.582031 L 42.324219 28.339844 L 43.292969 28.339844 L 43.292969 31.617188 C 43.292969 32.675781 42.480469 33.367188 41.457031 33.367188 "/>
<path fill-rule="nonzero" fill="#111111" fill-opacity="1" d="M 47.652344 33.324219 L 47.652344 28.339844 L 48.625 28.339844 L 48.625 33.324219 L 47.652344 33.324219 "/>
<path fill-rule="nonzero" fill="#111111" fill-opacity="1" d="M 54.28125 33.324219 L 54.28125 30.417969 L 53.328125 32.308594 L 52.667969 32.308594 L 51.710938 30.417969 L 51.710938 33.324219 L 50.734375 33.324219 L 50.734375 28.339844 L 51.695312 28.339844 L 53 31.035156 L 54.292969 28.339844 L 55.253906 28.339844 L 55.253906 33.324219 L 54.28125 33.324219 "/>
<path fill-rule="nonzero" fill="#111111" fill-opacity="1" d="M 60.921875 33.324219 L 60.921875 30.417969 L 59.96875 32.308594 L 59.3125 32.308594 L 58.351562 30.417969 L 58.351562 33.324219 L 57.378906 33.324219 L 57.378906 28.339844 L 58.339844 28.339844 L 59.640625 31.035156 L 60.9375 28.339844 L 61.894531 28.339844 L 61.894531 33.324219 L 60.921875 33.324219 "/>
<path fill-rule="nonzero" fill="#111111" fill-opacity="1" d="M 66.339844 29.433594 C 66.199219 29.269531 65.980469 29.164062 65.714844 29.164062 C 65.449219 29.164062 65.222656 29.269531 65.085938 29.433594 C 64.894531 29.640625 64.847656 29.875 64.847656 30.832031 C 64.847656 31.792969 64.894531 32.023438 65.085938 32.234375 C 65.222656 32.394531 65.449219 32.5 65.714844 32.5 C 65.980469 32.5 66.199219 32.394531 66.339844 32.234375 C 66.527344 32.023438 66.582031 31.792969 66.582031 30.832031 C 66.582031 29.875 66.527344 29.640625 66.339844 29.433594 Z M 67.058594 32.820312 C 66.710938 33.171875 66.28125 33.367188 65.714844 33.367188 C 65.148438 33.367188 64.714844 33.171875 64.363281 32.820312 C 63.859375 32.316406 63.871094 31.695312 63.871094 30.832031 C 63.871094 29.972656 63.859375 29.347656 64.363281 28.84375 C 64.714844 28.492188 65.148438 28.296875 65.714844 28.296875 C 66.28125 28.296875 66.710938 28.492188 67.058594 28.84375 C 67.5625 29.347656 67.554688 29.972656 67.554688 30.832031 C 67.554688 31.695312 67.5625 32.316406 67.058594 32.820312 "/>
<path fill-rule="nonzero" fill="#111111" fill-opacity="1" d="M 71.515625 31.230469 L 70.5 31.230469 L 70.5 32.457031 L 71.515625 32.457031 C 71.957031 32.457031 72.167969 32.175781 72.167969 31.839844 C 72.167969 31.503906 71.957031 31.230469 71.515625 31.230469 Z M 71.453125 29.207031 L 70.5 29.207031 L 70.5 30.355469 L 71.453125 30.355469 C 71.867188 30.355469 72.097656 30.125 72.097656 29.78125 C 72.097656 29.4375 71.867188 29.207031 71.453125 29.207031 Z M 71.613281 33.324219 L 69.527344 33.324219 L 69.527344 28.339844 L 71.53125 28.339844 C 72.503906 28.339844 73.070312 28.886719 73.070312 29.738281 C 73.070312 30.292969 72.707031 30.652344 72.457031 30.769531 C 72.757812 30.910156 73.140625 31.226562 73.140625 31.890625 C 73.140625 32.820312 72.503906 33.324219 71.613281 33.324219 "/>
<path fill-rule="nonzero" fill="#111111" fill-opacity="1" d="M 75.097656 33.324219 L 75.097656 28.339844 L 76.070312 28.339844 L 76.070312 33.324219 L 75.097656 33.324219 "/>
<path fill-rule="nonzero" fill="#111111" fill-opacity="1" d="M 78.183594 33.324219 L 78.183594 28.339844 L 79.15625 28.339844 L 79.15625 32.457031 L 81.417969 32.457031 L 81.417969 33.324219 L 78.183594 33.324219 "/>
<path fill-rule="nonzero" fill="#111111" fill-opacity="1" d="M 83.210938 33.324219 L 83.210938 28.339844 L 84.183594 28.339844 L 84.183594 33.324219 L 83.210938 33.324219 "/>
<path fill-rule="nonzero" fill="#111111" fill-opacity="1" d="M 86.292969 33.324219 L 86.292969 28.339844 L 89.578125 28.339844 L 89.578125 29.207031 L 87.269531 29.207031 L 87.269531 30.378906 L 89.234375 30.378906 L 89.234375 31.246094 L 87.269531 31.246094 L 87.269531 32.457031 L 89.578125 32.457031 L 89.578125 33.324219 L 86.292969 33.324219 "/>
<path fill-rule="nonzero" fill="#111111" fill-opacity="1" d="M 93.394531 29.207031 L 92.476562 29.207031 L 92.476562 30.523438 L 93.394531 30.523438 C 93.820312 30.523438 94.101562 30.25 94.101562 29.867188 C 94.101562 29.480469 93.820312 29.207031 93.394531 29.207031 Z M 94.148438 33.324219 L 93.175781 31.335938 L 92.476562 31.335938 L 92.476562 33.324219 L 91.503906 33.324219 L 91.503906 28.339844 L 93.457031 28.339844 C 94.472656 28.339844 95.074219 29.03125 95.074219 29.867188 C 95.074219 30.566406 94.648438 31 94.164062 31.175781 L 95.277344 33.324219 L 94.148438 33.324219 "/>
</svg>
